<svg xmlns="http://www.w3.org/2000/svg" width="40" height="40" viewBox="0 0 40 40">
    <path fill="#EAEAEA" fill-rule="evenodd" d="M20 40C8.954 40 0 31.046 0 20S8.954 0 20 0s20 8.954 20 20-8.954 20-20 20zm7.095-9.676a2.23 2.23 0 0 0 2.229-2.23V13.229A2.23 2.23 0 0 0 27.095 11H12.229A2.23 2.23 0 0 0 10 13.229v14.865a2.23 2.23 0 0 0 2.229 2.23h14.866zm0-11.149v8.176c0 .41-.333.743-.744.743H12.973a.744.744 0 0 1-.744-.743v-8.176h1.682a5.971 5.971 0 0 0-.195 1.487 5.946 5.946 0 1 0 11.892 0c0-.514-.073-1.012-.195-1.487h1.682zm0-5.203v2.23a.743.743 0 0 1-.744.743h-2.229a.742.742 0 0 1-.743-.743v-2.23c0-.41.332-.743.743-.743h2.229c.411 0 .744.333.744.743zm-7.433 2.973a3.717 3.717 0 1 1 0 7.435 3.717 3.717 0 0 1 0-7.435z"/>
</svg>
